<mxfile host="app.diagrams.net" agent="Mozilla/5.0 (Macintosh; Intel Mac OS X 10_15_7) AppleWebKit/537.36 (KHTML, like Gecko) Chrome/134.0.0.0 Safari/537.36" version="26.0.16">
  <diagram name="Page-1" id="23WCoPT1kQc0J8rjXla9">
    <mxGraphModel dx="1026" dy="684" grid="1" gridSize="10" guides="1" tooltips="1" connect="1" arrows="1" fold="1" page="1" pageScale="1" pageWidth="1100" pageHeight="850" math="0" shadow="0">
      <root>
        <mxCell id="0" />
        <mxCell id="1" parent="0" />
        <mxCell id="WhRp_8_IWen3JShvyv8e-3" value="persists operational&lt;div&gt;and audit data&lt;/div&gt;&lt;div&gt;to&lt;/div&gt;" style="edgeStyle=orthogonalEdgeStyle;rounded=0;orthogonalLoop=1;jettySize=auto;html=1;align=left;" edge="1" parent="1" source="WhRp_8_IWen3JShvyv8e-1" target="WhRp_8_IWen3JShvyv8e-2">
          <mxGeometry x="-0.1429" y="15" relative="1" as="geometry">
            <mxPoint x="409" y="320" as="sourcePoint" />
            <mxPoint x="409" y="390" as="targetPoint" />
            <mxPoint as="offset" />
          </mxGeometry>
        </mxCell>
        <mxCell id="WhRp_8_IWen3JShvyv8e-1" value="&lt;i&gt;Business Service&lt;/i&gt; with stateful Workflow models" style="rounded=1;whiteSpace=wrap;html=1;align=left;verticalAlign=top;spacingTop=12;spacingLeft=21;fontSize=15;shadow=1;glass=0;fillColor=default;" vertex="1" parent="1">
          <mxGeometry x="100" y="40" width="630" height="320" as="geometry" />
        </mxCell>
        <mxCell id="WhRp_8_IWen3JShvyv8e-2" value="Storage" style="shape=cylinder3;whiteSpace=wrap;html=1;boundedLbl=1;backgroundOutline=1;size=15;" vertex="1" parent="1">
          <mxGeometry x="305" y="450" width="220" height="60" as="geometry" />
        </mxCell>
        <mxCell id="WhRp_8_IWen3JShvyv8e-4" value="Workflow models (BPMN files)" style="rounded=0;whiteSpace=wrap;html=1;" vertex="1" parent="1">
          <mxGeometry x="130" y="100" width="570" height="30" as="geometry" />
        </mxCell>
        <mxCell id="WhRp_8_IWen3JShvyv8e-5" value="Workflow Engine" style="rounded=0;whiteSpace=wrap;html=1;fontStyle=1" vertex="1" parent="1">
          <mxGeometry x="130" y="150" width="570" height="40" as="geometry" />
        </mxCell>
        <mxCell id="WhRp_8_IWen3JShvyv8e-6" value="Runtime" style="rounded=0;whiteSpace=wrap;html=1;fontStyle=1" vertex="1" parent="1">
          <mxGeometry x="130" y="290" width="570" height="40" as="geometry" />
        </mxCell>
        <mxCell id="WhRp_8_IWen3JShvyv8e-7" value="Data-Index" style="rounded=0;whiteSpace=wrap;html=1;dashed=1;" vertex="1" parent="1">
          <mxGeometry x="130" y="210" width="120" height="60" as="geometry" />
        </mxCell>
        <mxCell id="WhRp_8_IWen3JShvyv8e-8" value="Data-Audit" style="rounded=0;whiteSpace=wrap;html=1;dashed=1;" vertex="1" parent="1">
          <mxGeometry x="280" y="210" width="120" height="60" as="geometry" />
        </mxCell>
        <mxCell id="WhRp_8_IWen3JShvyv8e-9" value="Jobs Service" style="rounded=0;whiteSpace=wrap;html=1;" vertex="1" parent="1">
          <mxGeometry x="430" y="210" width="120" height="60" as="geometry" />
        </mxCell>
        <mxCell id="WhRp_8_IWen3JShvyv8e-10" value="User Tasks" style="rounded=0;whiteSpace=wrap;html=1;" vertex="1" parent="1">
          <mxGeometry x="580" y="210" width="120" height="60" as="geometry" />
        </mxCell>
      </root>
    </mxGraphModel>
  </diagram>
</mxfile>
